ffmpeg version 3.4.8-0ubuntu0.2 Copyright (c) 2000-2020 the FFmpeg developers
  built with gcc 7 (Ubuntu 7.5.0-3ubuntu1~18.04)
  configuration: --prefix=/usr --extra-version=0ubuntu0.2 --toolchain=hardened --libdir=/usr/lib/x86_64-linux-gnu --incdir=/usr/include/x86_64-linux-gnu --enable-gpl --disable-stripping --enable-avresample --enable-avisynth --enable-gnutls --enable-ladspa --enable-libass --enable-libbluray --enable-libbs2b --enable-libcaca --enable-libcdio --enable-libflite --enable-libfontconfig --enable-libfreetype --enable-libfribidi --enable-libgme --enable-libgsm --enable-libmp3lame --enable-libmysofa --enable-libopenjpeg --enable-libopenmpt --enable-libopus --enable-libpulse --enable-librubberband --enable-librsvg --enable-libshine --enable-libsnappy --enable-libsoxr --enable-libspeex --enable-libssh --enable-libtheora --enable-libtwolame --enable-libvorbis --enable-libvpx --enable-libwavpack --enable-libwebp --enable-libx265 --enable-libxml2 --enable-libxvid --enable-libzmq --enable-libzvbi --enable-omx --enable-openal --enable-opengl --enable-sdl2 --enable-libdc1394 --enable-libdrm --enable-libiec61883 --enable-chromaprint --enable-frei0r --enable-libopencv --enable-libx264 --enable-shared
  libavutil      55. 78.100 / 55. 78.100
  libavcodec     57.107.100 / 57.107.100
  libavformat    57. 83.100 / 57. 83.100
  libavdevice    57. 10.100 / 57. 10.100
  libavfilter     6.107.100 /  6.107.100
  libavresample   3.  7.  0 /  3.  7.  0
  libswscale      4.  8.100 /  4.  8.100
  libswresample   2.  9.100 /  2.  9.100
  libpostproc    54.  7.100 / 54.  7.100
[mov,mp4,m4a,3gp,3g2,mj2 @ 0x55ec3a85e4a0] overread end of atom 'esds' by 506 bytes
[mov,mp4,m4a,3gp,3g2,mj2 @ 0x55ec3a85e4a0] STSC entry 10 is invalid (first=20 count=1 id=1)
[mov,mp4,m4a,3gp,3g2,mj2 @ 0x55ec3a85e4a0] STSC entry 9 is invalid (first=49 count=2 id=1)
[mov,mp4,m4a,3gp,3g2,mj2 @ 0x55ec3a85e4a0] STSC entry 7 is invalid (first=13 count=2 id=1)
[mov,mp4,m4a,3gp,3g2,mj2 @ 0x55ec3a85e4a0] STSC entry 6 is invalid (first=524300 count=1 id=1)
[mov,mp4,m4a,3gp,3g2,mj2 @ 0x55ec3a85e4a0] STSC entry 5 is invalid (first=138 count=2 id=1)
[mov,mp4,m4a,3gp,3g2,mj2 @ 0x55ec3a85e4a0] STSC entry 3 is invalid (first=6 count=65538 id=33)
[mov,mp4,m4a,3gp,3g2,mj2 @ 0x55ec3a85e4a0] STSC entry 2 is invalid (first=268435461 count=1 id=1)
[mov,mp4,m4a,3gp,3g2,mj2 @ 0x55ec3a85e4a0] STSC entry 1 is invalid (first=2050 count=2 id=1073741825)
[mov,mp4,m4a,3gp,3g2,mj2 @ 0x55ec3a85e4a0] stream 1, missing mandatory atoms, broken header
[mov,mp4,m4a,3gp,3g2,mj2 @ 0x55ec3a85e4a0] Could not find codec parameters for stream 0 (Video: none, none): unknown codec
Consider increasing the value for the 'analyzeduration' and 'probesize' options
Input #0, mov,mp4,m4a,3gp,3g2,mj2, from '/root/results/2020-11-30_15:05:31/sample2934_0.00526.mp4':
  Metadata:
    major_brand     : isom
    minor_version   : 512
    compatible_brands: isomiso2avc1mp41
    creation_time   : 1970-01-01T00:00:04.000000Z
  Duration: 00:00:00.01, bitrate: 22483 kb/s
    Stream #0:0(und): Video: none, none, SAR 1521531344:1568358611 DAR 0:0, 12800 tbr, 12800 tbn, 12800 tbc (default)
    Metadata:
      rotate          : 13.633
      handler_name    : ISO Media file produced by Gogle Inc. Created on:(11/24/20
    Side data:
      displaymatrix: rotation of -13.63 degrees
    Stream #0:1(eng): Audio: aac (mp4a / 0x6134706D), 44100 Hz, stereo, fltp, 134 kb/s
Stream mapping:
  Stream #0:1 -> #0:0 (aac (native) -> mp3 (libmp3lame))
Press [q] to stop, [?] for help
Finishing stream 0:0 without any data written to it.
Output #0, avi, to '/root/results/2020-11-30_15:05:31/sample2934_0.00526.avi':
  Metadata:
    major_brand     : isom
    minor_version   : 512
    compatible_brands: isomiso2avc1mp41
    ISFT            : Lavf57.83.100
    Stream #0:0(eng): Audio: mp3 (libmp3lame) (U[0][0][0] / 0x0055), 44100 Hz, stereo, fltp
    Metadata:
      encoder         : Lavc57.107.100 libmp3lame
size=       6kB time=00:00:00.00 bitrate=N/A speed=   0x    
video:0kB audio:0kB subtitle:0kB other streams:0kB global headers:0kB muxing overhead: unknown
Output file is empty, nothing was encoded (check -ss / -t / -frames parameters if used)
